# xmcd CD database file
#
# Track frame offsets:
#	150
#	24127
#	49597
#	68300
#	96548
#	116944
#	143012
#	170794
#	193788
#	213951
#	236165
#
# Disc length: 3473 seconds
#
# Revision: 0
# Processed by: cddbd v1.5.2PL0 Copyright (c) Steve Scherf et al.
# Submitted via: CDex 1.70beta2
#
DISCID=9a0d8f0b
DTITLE=Chuck Loeb - Presence
DYEAR=1900
DGENRE=Jazz
TTITLE0=Good To Go
TTITLE1=Rikki Don't Lose That Number
TTITLE2=Window Of The Soul
TTITLE3=Starting Over
TTITLE4=Llevame
TTITLE5=Presence
TTITLE6=The Music Outside
TTITLE7=The Western Sky
TTITLE8=Hangin' With You
TTITLE9=Mr. Martino
TTITLE10=Shed A Little Light
EXTD=
EXTT0=
EXTT1=
EXTT2=
EXTT3=
EXTT4=
EXTT5=
EXTT6=
EXTT7=
EXTT8=
EXTT9=
EXTT10=
PLAYORDER=
